<svg id="Capa_1" enable-background="new 0 0 512 512" height="512" viewBox="0 0 512 512" width="512" xmlns="http://www.w3.org/2000/svg"><g><path d="m57.333 241h-27.333v-68.857h-30v236.571h30v-68.857h27.333z"/><path d="m189.357 126.667h133.286v-27.81h51.643v-30h-236.572v30h51.643z"/><path d="m412.143 223.786h-37.856v-67.119h-212.31l-49.904 49.904h-24.74v167.715h24.74l68.856 68.856h114.421l78.936-58.055v-28.017h37.856v-133.284zm-142.6 138.279-27.109-12.848 20.755-43.791h-41.255l-11.756-18.582 32.257-68.033 27.107 12.854-20.749 43.762h41.251l11.755 18.581z"/><path d="m462.571 172.143h-20.429v236.571h20.429c27.255 0 49.429-22.173 49.429-49.428v-137.715c0-27.255-22.174-49.428-49.429-49.428z"/></g></svg>